<svg width="256" height="297" viewBox="0 0 256 297" fill="none" xmlns="http://www.w3.org/2000/svg">
<path d="M98.1592 68.1054H85.3198C84.5604 64.4124 83.2316 61.168 81.3333 58.3724C79.4696 55.5767 77.1916 53.2297 74.4995 51.3314C71.8419 49.3986 68.8909 47.949 65.6465 46.9826C62.4022 46.0162 59.0197 45.533 55.4993 45.533C49.0796 45.533 43.2639 47.1552 38.0522 50.3995C32.875 53.6439 28.7506 58.4241 25.6788 64.7403C22.6415 71.0564 21.1229 78.8049 21.1229 87.9858C21.1229 97.1666 22.6415 104.915 25.6788 111.231C28.7506 117.547 32.875 122.328 38.0522 125.572C43.2639 128.816 49.0796 130.439 55.4993 130.439C59.0197 130.439 62.4022 129.955 65.6465 128.989C68.8909 128.023 71.8419 126.59 74.4995 124.692C77.1916 122.759 79.4696 120.395 81.3333 117.599C83.2316 114.769 84.5604 111.525 85.3198 107.866H98.1592C97.1927 113.285 95.4325 118.134 92.8784 122.414C90.3244 126.694 87.149 130.335 83.3524 133.338C79.5559 136.306 75.2933 138.567 70.5648 140.12C65.8709 141.673 60.849 142.45 55.4993 142.45C46.4565 142.45 38.4146 140.241 31.3737 135.823C24.3327 131.405 18.7931 125.123 14.7549 116.978C10.7167 108.833 8.69765 99.1685 8.69765 87.9858C8.69765 76.8031 10.7167 67.139 14.7549 58.9936C18.7931 50.8482 24.3327 44.5666 31.3737 40.1487C38.4146 35.7309 46.4565 33.5219 55.4993 33.5219C60.849 33.5219 65.8709 34.2985 70.5648 35.8517C75.2933 37.4048 79.5559 39.6828 83.3524 42.6855C87.149 45.6538 90.3244 49.2778 92.8784 53.5576C95.4325 57.8029 97.1927 62.6522 98.1592 68.1054Z" fill="#37D4F6"/>
<path d="M195.904 261.732H163.184V155.703H197.353C207.639 155.703 216.44 157.826 223.757 162.071C231.074 166.282 236.683 172.339 240.583 180.243C244.483 188.112 246.433 197.535 246.433 208.51C246.433 219.555 244.466 229.064 240.531 237.037C236.596 244.975 230.867 251.084 223.343 255.364C215.819 259.609 206.672 261.732 195.904 261.732ZM176.023 250.342H195.075C203.842 250.342 211.107 248.651 216.871 245.268C222.635 241.886 226.932 237.071 229.763 230.824C232.593 224.577 234.008 217.139 234.008 208.51C234.008 199.951 232.61 192.582 229.814 186.404C227.019 180.191 222.842 175.428 217.286 172.115C211.729 168.767 204.809 167.093 196.525 167.093H176.023V250.342Z" fill="#37D4F6"/>
<path d="M217.877 21.5387L224.258 21.2827L25.5259 275.185L18.8177 275.454L217.877 21.5387Z" fill="#37D4F6"/>
</svg>
