<svg width="4140" height="957" viewBox="0 0 4140 957" fill="none" xmlns="http://www.w3.org/2000/svg">
<path d="M0 321.5H42V297.5H85V321.5H101V339H110.5L101 358L117 355.5V508.5H156V687.5H190V667.5H226V655.5H247.5L255.5 395.5L282 391L287.5 173.5L308 169L311.5 12L365.5 1L412 5L409 168.5L437 173.5V182H454.5L451 391L478.5 395.5L472.5 662V704H485.5V687.5H556V545.5L618 539L704.5 545.5V580H713.5L709.5 655.5H723.5V586H730.5V564V460.5H740V418.5H753V395.5L795.5 391V411H827.5V386.5H848.5V411H871.5V533.5L961.5 519.5H997L1000 552H1011V586L1068.5 580H1087.5V613.5H1101V418.5L1177 411L1354 427L1351 555L1473 564L1468.5 629H1498.5L1504.5 391L1655 371L1690.5 376V462L1740 467V476.5H1753L1749.5 486L1760.5 489.5V501L1774.5 507L1851 501L1868 502.5V491.5H1892.5L1961 497.5V510.5L2064 518V564H2114.5V476.5H2139.5V328.5L2217 313H2229.5V340H2249V642.5H2276V615.5H2293.5V549L2370.5 544.5L2421 549V572H2453L2476.5 592L2471.5 642.5L2485.5 638.5V615.5L2509 582L2512.5 570.5L2586 564L2657.5 572V549H2694.5L2690 531.5L2707.5 527.5V518L2784 527.5L2779.5 628.5H2825.5H2859V642.5H2880.5L2933 570.5L2940.5 628.5L2952 624L2946 570.5L3021 658L3025.5 801H3038.5V564L3077 560V553H3108V564L3165 570.5V544.5L3239 540.5V260.5L3286 256L3281.5 238.5L3314.5 234.5V122L3321 234.5L3338 238.5V278.5H3346.5V564H3363V422.5L3426.5 301.5L3430.5 238.5L3435 301.5L3476.5 353C3484.17 375.333 3499.5 421.4 3499.5 427C3499.5 432.6 3503.17 590.333 3505 668.5H3535L3531 98L3578 89.5L3573.5 78L3647.5 68.5L3678.5 78L3729.5 98L3738 717.5H3756.5L3751 383L3767 379.5V343L3956.5 327.5L4001 338.5L4054.5 334V321.5L4086.5 318.5L4096 321.5V329.5H4121" stroke="#F07631"/>
<path d="M0.5 667H41.5L56 699V755H67V744.5H97.5V717L114.5 710.5V691.5H149V717H171.5V744.5H195.5V787.5H208V766.5L253 738L317 741.5L339 744.5V660.5H348.5L345 642.5H348.5V616H354.5V583.5L391.5 545.5L398.5 514L406 545.5L434.5 579V611.5H442.5V771H465.5L471 755H498.5V702.5L545.5 698.5L738 706V746H778H790.5V810H800.5V774H811V788.5H828.5L831 838V848H850.5L848 833H872L875 827H907H977.5V820.5H1029.5L1033.5 841.5H1045V827L1069.5 824L1078.5 833H1151.5V860.5H1184V731H1215V722H1232V713.5H1248H1271V706L1316.5 709L1317.5 716L1350.5 713.5V722H1376L1380.5 709L1437.5 706L1440.5 713.5L1493.5 709V621.5L1515 575L1549 621.5V652L1566 657V713.5L1587 716V739.5V765L1638 753L1745 762V775.5H1757.5V747.5L1808.5 744L1871 747.5V736.5L1877 732.5L1893 727.5H1945V739.5H1967L1969 730H2044.5V747.5H2076V794H2101H2145V836L2171.5 807H2250.5L2263.5 841.5H2277.5L2280.5 856L2333 851.5H2370V868.5H2407V770.5H2451V790.5H2460L2455.5 753H2489.5V777H2493V764H2517L2536.5 767H2611.5V777H2641.5V783.5C2652.17 782.5 2673 781.8 2671 787C2669 792.2 2670.17 865.5 2671 901.5H2764V883H2831.5L2835 907L3154.5 916L3164.5 895.5H3174L3187.5 883L3199.5 901.5L3217 907L3237 887.5L3255 895.5L3272 887.5L3261.5 907L3282.5 895.5L3292 912.5L3356 901.5L3360 916L3356 944.5H3803L3856 955.5L3890.5 930H3922.5L3920.5 899L3959.5 895.5V937H4139.5" stroke="#F07631"/>
</svg>
